<svg width="2032px" height="1876px" viewBox="0 0 2032 1876" version="1.1" xmlns="http://www.w3.org/2000/svg" xmlns:xlink="http://www.w3.org/1999/xlink"><path d="M1015.625,1.13686838e-13 C454.707031,1.13686838e-13 0,358.525391 0,800.78125 C0,1086.70898 190.097656,1337.59766 476.054687,1479.26758 C460.498047,1532.91992 376.083984,1824.42383 372.724609,1847.32422 C372.724609,1847.32422 370.703125,1864.53125 381.845703,1871.09375 C392.988281,1877.65625 406.09375,1872.55859 406.09375,1872.55859 C438.046875,1868.0957 776.630859,1630.26367 835.234375,1588.96484 C893.779297,1597.25586 954.0625,1601.5625 1015.625,1601.5625 C1576.54297,1601.5625 2031.25,1243.04688 2031.25,800.78125 C2031.25,358.525391 1576.54297,1.13686838e-13 1015.625,1.13686838e-13 Z" id="Path" fill="#000000"></path><path d="M454.101563,1080.32227 C421.787109,1080.32227 395.507813,1055.22461 395.507813,1024.36523 L395.507813,676.269531 L304.082031,676.269531 C272.373047,676.269531 246.582031,650.527344 246.582031,618.896484 C246.582031,587.265625 272.382813,561.523438 304.082031,561.523438 L604.121094,561.523438 C635.830078,561.523438 661.621094,587.265625 661.621094,618.896484 C661.621094,650.527344 635.820313,676.269531 604.121094,676.269531 L512.695313,676.269531 L512.695313,1024.36523 C512.695313,1055.22461 486.416016,1080.32227 454.101563,1080.32227 Z M967.890625,1079.56059 C943.457031,1079.56059 924.765625,1069.63867 919.130859,1053.68164 L890.117188,977.724609 L711.445313,977.714844 L682.412109,1053.7207 C676.796875,1069.64844 658.115234,1079.56059 633.681641,1079.56059 C620.829401,1079.57371 608.125399,1076.81573 596.435547,1071.47461 C580.283203,1064.02344 564.755859,1043.53516 582.548828,988.271484 L722.705078,619.365234 C732.578125,591.308594 762.568359,562.402344 800.732422,561.533203 C839.003906,562.392578 868.994141,591.308594 878.886719,619.423828 L1018.98438,988.164062 C1036.81641,1043.55469 1021.28906,1064.05273 1005.13672,1071.48437 C993.444082,1076.81601 980.741462,1079.57036 967.890625,1079.56059 C967.880859,1079.56059 967.890625,1079.56059 967.890625,1079.56059 L967.890625,1079.56059 Z M859.306641,873.935547 L800.78125,707.675781 L742.255859,873.935547 L859.306641,873.935547 L859.306641,873.935547 Z M1113.28125,1071.77734 C1082.31445,1071.77734 1057.12891,1047.67578 1057.12891,1018.06641 L1057.12891,620.117188 C1057.12891,587.802734 1083.96484,561.523438 1116.94336,561.523438 C1149.92188,561.523438 1176.75781,587.802734 1176.75781,620.117188 L1176.75781,964.355469 L1301.26953,964.355469 C1332.23633,964.355469 1357.42188,988.457031 1357.42188,1018.06641 C1357.42188,1047.67578 1332.23633,1071.77734 1301.26953,1071.77734 L1113.28125,1071.77734 Z M1438.80859,1079.56055 C1406.49414,1079.56055 1380.21484,1053.28125 1380.21484,1020.9668 L1380.21484,620.117188 C1380.21484,587.802734 1406.49414,561.523438 1438.80859,561.523438 C1471.12305,561.523438 1497.40234,587.802734 1497.40234,620.117188 L1497.40234,746.054688 L1660.87891,582.578125 C1669.28711,574.169922 1680.83984,569.541016 1693.37891,569.541016 C1708.00781,569.541016 1722.69531,575.849609 1733.70117,586.845703 C1743.96484,597.099609 1750.08789,610.292969 1750.92773,623.994141 C1751.77734,637.8125 1747.17773,650.478516 1737.99805,659.667969 L1604.47266,793.173828 L1748.70117,984.248047 C1758.10733,996.629755 1762.15935,1012.26448 1759.95117,1027.65625 C1757.84143,1043.05761 1749.65433,1056.97356 1737.2168,1066.29883 C1727.08424,1074.00055 1714.69996,1078.1561 1701.97266,1078.125 C1683.56267,1078.21068 1666.20017,1069.57109 1655.16602,1054.83398 L1517.75391,872.763672 L1497.42187,893.095703 L1497.42187,1020.9375 C1497.38422,1053.29469 1471.16578,1079.5175 1438.80859,1079.56055 L1438.80859,1079.56055 Z" id="Shape" fill="#FFE003"></path></svg>