<?xml version="1.0" encoding="UTF-8"?>
<svg width="13px" height="24px" viewBox="0 0 13 24" version="1.1" xmlns="http://www.w3.org/2000/svg" xmlns:xlink="http://www.w3.org/1999/xlink">
    <title>Fill 2</title>
    <g id="Page-1" stroke="none" stroke-width="1" fill="none" fill-rule="evenodd">
        <g id="Group-3" transform="translate(-110.000000, -19.000000)" fill="#FFFFFF">
            <path d="M121.591755,19 L111.255057,19 C110.561267,19 110,19.5577556 110,20.2394387 L110,30.4261606 C110,31.1156042 110.561267,31.6656102 111.255057,31.6656102 L116.018045,31.6656102 C115.986865,32.8740724 115.472367,34.1909849 114.7396,35.3607129 C113.905494,36.6776281 112.135939,38.1417249 112.120347,38.1494717 C111.980031,38.2811624 111.878691,38.4360936 111.878691,38.6452499 C111.878691,38.8079279 111.964439,38.9318718 112.057983,39.0635652 L115.378823,42.7741616 C115.378823,42.7741616 115.542526,42.9445865 115.675049,42.9755711 C115.823161,43.0143052 115.994661,43.0143052 116.111589,42.921346 C121.864591,38.5290529 122.698697,33.01351 122.839097,30.0310885 L122.839097,20.2394387 C122.846812,19.5577556 122.285542,19 121.591755,19" id="Fill-2"></path>
        </g>
    </g>
</svg>