<?xml version="1.0" encoding="UTF-8"?>
<svg width="50px" height="50px" viewBox="0 0 50 50" version="1.1" xmlns="http://www.w3.org/2000/svg" xmlns:xlink="http://www.w3.org/1999/xlink">
    <title>10</title>
    <g id="Page-1" stroke="none" stroke-width="1" fill="none" fill-rule="evenodd">
        <g id="permission" transform="translate(-617.000000, -37.000000)">
            <g id="10" transform="translate(617.000000, 37.000000)">
                <rect id="Rectangle-Copy-9" stroke="#C53336" stroke-width="5" fill="#F6746A" x="2.5" y="2.5" width="45" height="45" rx="10"></rect>
                <path d="M20.1220703,35 L20.1220703,13.4375 L16.7822266,13.4375 C16.3134766,14.7460938 15.4492188,15.8911133 14.1894531,16.8725586 C12.9296875,17.8540039 11.7626953,18.5205078 10.6884766,18.8720703 L10.6884766,18.8720703 L10.6884766,22.6074219 C12.7294922,21.9335938 14.5019531,20.8935547 16.0058594,19.4873047 L16.0058594,19.4873047 L16.0058594,35 L20.1220703,35 Z M33.2324219,35.3662109 C35.3125,35.3662109 36.9335938,34.6337891 38.0957031,33.1689453 C39.5019531,31.3916016 40.2050781,28.4716797 40.2050781,24.4091797 C40.2050781,20.3369141 39.5068359,17.421875 38.1103516,15.6640625 C36.9384766,14.1796875 35.3125,13.4375 33.2324219,13.4375 C31.1523438,13.4375 29.53125,14.1699219 28.3691406,15.6347656 C26.9628906,17.4121094 26.2597656,20.3222656 26.2597656,24.3652344 C26.2597656,28.4863281 26.8994141,31.3500977 28.1787109,32.956543 C29.4580078,34.5629883 31.1425781,35.3662109 33.2324219,35.3662109 Z M33.2324219,31.953125 C32.734375,31.953125 32.2924805,31.796875 31.9067383,31.484375 C31.5209961,31.171875 31.2011719,30.5444336 30.9472656,29.6020508 C30.6933594,28.659668 30.5664062,26.9287109 30.5664062,24.4091797 C30.5664062,21.8896484 30.7080078,20.0976562 30.9912109,19.0332031 C31.2060547,18.2128906 31.5087891,17.644043 31.8994141,17.3266602 C32.2900391,17.0092773 32.734375,16.8505859 33.2324219,16.8505859 C33.7304688,16.8505859 34.1723633,17.0092773 34.5581055,17.3266602 C34.9438477,17.644043 35.2636719,18.2739258 35.5175781,19.2163086 C35.7714844,20.1586914 35.8984375,21.8896484 35.8984375,24.4091797 C35.8984375,26.9287109 35.7568359,28.7158203 35.4736328,29.7705078 C35.2587891,30.5908203 34.9560547,31.159668 34.5654297,31.4770508 C34.1748047,31.7944336 33.7304688,31.953125 33.2324219,31.953125 Z" fill="#FFFFFF" fill-rule="nonzero"></path>
            </g>
        </g>
    </g>
</svg>