<?xml version="1.0" encoding="UTF-8"?>
<svg width="50px" height="50px" viewBox="0 0 50 50" version="1.1" xmlns="http://www.w3.org/2000/svg" xmlns:xlink="http://www.w3.org/1999/xlink">
    <title>03</title>
    <g id="Page-1" stroke="none" stroke-width="1" fill="none" fill-rule="evenodd">
        <g id="permission" transform="translate(-197.000000, -37.000000)">
            <g id="03" transform="translate(197.000000, 37.000000)">
                <rect id="Rectangle-Copy-2" stroke="#3F8C5E" stroke-width="5" fill="#71DD9F" x="2.5" y="2.5" width="45" height="45" rx="10"></rect>
                <path d="M24.8461914,35.3662109 C26.8969727,35.3662109 28.6108398,34.7021484 29.987793,33.3740234 C31.3647461,32.0458984 32.0532227,30.4394531 32.0532227,28.5546875 C32.0532227,27.2558594 31.6845703,26.1474609 30.9472656,25.2294922 C30.2099609,24.3115234 29.2260742,23.7207031 27.9956055,23.4570312 C30.0561523,22.3339844 31.0864258,20.8300781 31.0864258,18.9453125 C31.0864258,17.6171875 30.5834961,16.4257812 29.5776367,15.3710938 C28.3569336,14.0820312 26.7358398,13.4375 24.7143555,13.4375 C23.5327148,13.4375 22.4658203,13.659668 21.5136719,14.1040039 C20.5615234,14.5483398 19.8193359,15.1586914 19.2871094,15.9350586 C18.7548828,16.7114258 18.3569336,17.7490234 18.0932617,19.0478516 L18.0932617,19.0478516 L21.887207,19.6923828 C21.9946289,18.7548828 22.2973633,18.0419922 22.7954102,17.5537109 C23.293457,17.0654297 23.894043,16.8212891 24.597168,16.8212891 C25.3100586,16.8212891 25.8813477,17.0361328 26.3110352,17.4658203 C26.7407227,17.8955078 26.9555664,18.4716797 26.9555664,19.1943359 C26.9555664,20.0439453 26.6625977,20.7250977 26.0766602,21.237793 C25.4907227,21.7504883 24.6411133,21.9921875 23.527832,21.9628906 L23.527832,21.9628906 L23.0737305,25.3173828 C23.8061523,25.1123047 24.4360352,25.0097656 24.9633789,25.0097656 C25.7641602,25.0097656 26.4428711,25.3125 26.9995117,25.9179688 C27.5561523,26.5234375 27.8344727,27.34375 27.8344727,28.3789062 C27.8344727,29.4726562 27.5439453,30.3417969 26.9628906,30.9863281 C26.3818359,31.6308594 25.6665039,31.953125 24.8168945,31.953125 C24.0258789,31.953125 23.3520508,31.6845703 22.7954102,31.1474609 C22.2387695,30.6103516 21.8969727,29.8339844 21.7700195,28.8183594 L21.7700195,28.8183594 L17.7856445,29.3017578 C17.9907227,31.1083984 18.7329102,32.5708008 20.012207,33.6889648 C21.2915039,34.8071289 22.902832,35.3662109 24.8461914,35.3662109 Z" id="3" fill="#FFFFFF" fill-rule="nonzero"></path>
            </g>
        </g>
    </g>
</svg>