<?xml version="1.0" encoding="UTF-8"?>
<svg width="50px" height="50px" viewBox="0 0 50 50" version="1.1" xmlns="http://www.w3.org/2000/svg" xmlns:xlink="http://www.w3.org/1999/xlink">
    <title>06</title>
    <g id="Page-1" stroke="none" stroke-width="1" fill="none" fill-rule="evenodd">
        <g id="permission" transform="translate(-377.000000, -37.000000)">
            <g id="06" transform="translate(377.000000, 37.000000)">
                <rect id="Rectangle-Copy-5" stroke="#2C7F91" stroke-width="5" fill="#6FD2DF" x="2.5" y="2.5" width="45" height="45" rx="10"></rect>
                <path d="M25.3735352,35.3662109 C27.3950195,35.3662109 29.050293,34.7021484 30.3393555,33.3740234 C31.628418,32.0458984 32.2729492,30.2832031 32.2729492,28.0859375 C32.2729492,26.015625 31.6601562,24.3261719 30.4345703,23.0175781 C29.2089844,21.7089844 27.7368164,21.0546875 26.0180664,21.0546875 C24.4946289,21.0546875 23.2202148,21.6601562 22.1948242,22.8710938 C22.3510742,20.4003906 22.7294922,18.7744141 23.3300781,17.9931641 C23.9306641,17.2119141 24.6655273,16.8212891 25.534668,16.8212891 C26.1889648,16.8212891 26.7211914,17.0166016 27.1313477,17.4072266 C27.5415039,17.7978516 27.7954102,18.4033203 27.8930664,19.2236328 L27.8930664,19.2236328 L31.8774414,18.7841797 C31.5844727,17.0458984 30.9033203,15.7202148 29.8339844,14.8071289 C28.7646484,13.894043 27.4145508,13.4375 25.7836914,13.4375 C23.4594727,13.4375 21.5698242,14.3066406 20.1147461,16.0449219 C18.659668,17.7832031 17.9321289,20.6201172 17.9321289,24.5556641 C17.9321289,28.3935547 18.6303711,31.1547852 20.0268555,32.8393555 C21.4233398,34.5239258 23.2055664,35.3662109 25.3735352,35.3662109 Z M25.5786133,31.953125 C24.7875977,31.953125 24.0844727,31.5893555 23.4692383,30.8618164 C22.8540039,30.1342773 22.5463867,29.1015625 22.5463867,27.7636719 C22.5463867,26.5527344 22.8198242,25.637207 23.3666992,25.0170898 C23.9135742,24.3969727 24.5825195,24.0869141 25.3735352,24.0869141 C26.1938477,24.0869141 26.8774414,24.4116211 27.4243164,25.0610352 C27.9711914,25.7104492 28.2446289,26.7333984 28.2446289,28.1298828 C28.2446289,29.4873047 27.9907227,30.4638672 27.4829102,31.0595703 C26.9750977,31.6552734 26.340332,31.953125 25.5786133,31.953125 Z" id="6" fill="#FFFFFF" fill-rule="nonzero"></path>
            </g>
        </g>
    </g>
</svg>