<?xml version="1.0" encoding="UTF-8"?>
<svg width="50px" height="50px" viewBox="0 0 50 50" version="1.1" xmlns="http://www.w3.org/2000/svg" xmlns:xlink="http://www.w3.org/1999/xlink">
    <title>09</title>
    <g id="Page-1" stroke="none" stroke-width="1" fill="none" fill-rule="evenodd">
        <g id="permission" transform="translate(-557.000000, -37.000000)">
            <g id="09" transform="translate(557.000000, 37.000000)">
                <rect id="Rectangle-Copy-8" stroke="#C47846" stroke-width="5" fill="#FFA374" x="2.5" y="2.5" width="45" height="45" rx="10"></rect>
                <path d="M24.0844727,35.3808594 C26.418457,35.3808594 28.3129883,34.5117188 29.7680664,32.7734375 C31.2231445,31.0351562 31.9506836,28.203125 31.9506836,24.2773438 C31.9506836,20.4199219 31.2524414,17.6489258 29.855957,15.9643555 C28.4594727,14.2797852 26.6723633,13.4375 24.4946289,13.4375 C22.4926758,13.4375 20.8447266,14.1040039 19.5507812,15.4370117 C18.2568359,16.7700195 17.6098633,18.5253906 17.6098633,20.703125 C17.6098633,22.7929688 18.2226562,24.4897461 19.4482422,25.793457 C20.6738281,27.097168 22.1313477,27.7490234 23.8208008,27.7490234 C25.3735352,27.7490234 26.6674805,27.1484375 27.7026367,25.9472656 C27.5366211,28.4082031 27.1557617,30.0292969 26.5600586,30.8105469 C25.9643555,31.5917969 25.2416992,31.9824219 24.3920898,31.9824219 C23.7182617,31.9824219 23.1762695,31.7871094 22.7661133,31.3964844 C22.355957,31.0058594 22.1020508,30.4052734 22.0043945,29.5947266 L22.0043945,29.5947266 L18.0200195,30.0341797 C18.3129883,31.8115234 18.9770508,33.1469727 20.012207,34.0405273 C21.0473633,34.934082 22.4047852,35.3808594 24.0844727,35.3808594 Z M24.5239258,24.7314453 C23.7036133,24.7314453 23.0200195,24.4067383 22.4731445,23.7573242 C21.9262695,23.1079102 21.652832,22.0898438 21.652832,20.703125 C21.652832,19.3359375 21.9042969,18.3520508 22.4072266,17.7514648 C22.9101562,17.1508789 23.5424805,16.8505859 24.3041992,16.8505859 C25.1049805,16.8505859 25.8105469,17.2167969 26.4208984,17.9492188 C27.03125,18.6816406 27.3364258,19.7119141 27.3364258,21.0400391 C27.3364258,22.2509766 27.0654297,23.1689453 26.5234375,23.7939453 C25.9814453,24.4189453 25.3149414,24.7314453 24.5239258,24.7314453 Z" id="9" fill="#FFFFFF" fill-rule="nonzero"></path>
            </g>
        </g>
    </g>
</svg>