<?xml version="1.0" encoding="UTF-8"?>
<svg width="51px" height="51px" viewBox="0 0 51 51" version="1.1" xmlns="http://www.w3.org/2000/svg" xmlns:xlink="http://www.w3.org/1999/xlink">
    <title>X</title>
    <g id="Page-1" stroke="none" stroke-width="1" fill="none" fill-rule="evenodd">
        <g id="X" transform="translate(3.000000, 3.000000)" fill-rule="nonzero">
            <rect id="Rectangle" stroke="#1A1A1A" stroke-width="5" fill="#5B5B5B" x="0" y="0" width="45" height="45" rx="10"></rect>
            <path d="M33.3056802,29.9178199 C34.243107,30.8552467 34.243107,32.373878 33.3056802,33.3113048 C32.8407165,33.7800182 32.2257646,34.0125 31.6108126,34.0125 C30.9958607,34.0125 30.3824086,33.7781433 29.9144452,33.3094299 L22.0115626,25.410672 L14.1094299,33.3075551 C13.6407165,33.7800182 13.0265145,34.0125 12.4123125,34.0125 C11.7981105,34.0125 11.1846584,33.7800182 10.7155701,33.3075551 C9.77814331,32.3701283 9.77814331,30.851497 10.7155701,29.9140702 L18.6199525,22.0096877 L10.7155701,14.109055 C9.77814331,13.1716282 9.77814331,11.6529968 10.7155701,10.7155701 C11.6529968,9.77814331 13.1716282,9.77814331 14.109055,10.7155701 L22.0115626,18.6237022 L29.915945,10.7193198 C30.8533718,9.78189302 32.3720032,9.78189302 33.3094299,10.7193198 C34.2468567,11.6567465 34.2468567,13.1753779 33.3094299,14.1128047 L25.4050475,22.0171871 L33.3056802,29.9178199 Z" id="Path" fill="#FFFFFF"></path>
        </g>
    </g>
</svg>