<?xml version="1.0" encoding="UTF-8"?>
<svg width="50px" height="50px" viewBox="0 0 50 50" version="1.1" xmlns="http://www.w3.org/2000/svg" xmlns:xlink="http://www.w3.org/1999/xlink">
    <title>02</title>
    <g id="Page-1" stroke="none" stroke-width="1" fill="none" fill-rule="evenodd">
        <g id="permission" transform="translate(-137.000000, -37.000000)">
            <g id="02" transform="translate(137.000000, 37.000000)">
                <rect id="Rectangle-Copy" stroke="#6B6B6B" stroke-width="5" fill="#BFBFBF" x="2.5" y="2.5" width="45" height="45" rx="10"></rect>
                <path d="M31.8334961,35 L31.8334961,31.1767578 L23.659668,31.1767578 C23.8745117,30.8056641 24.1552734,30.4248047 24.5019531,30.0341797 C24.8486328,29.6435547 25.6713867,28.8525391 26.9702148,27.6611328 C28.269043,26.4697266 29.1674805,25.5566406 29.6655273,24.921875 C30.4174805,23.9648438 30.9667969,23.0493164 31.3134766,22.175293 C31.6601562,21.3012695 31.8334961,20.3808594 31.8334961,19.4140625 C31.8334961,17.7148438 31.2280273,16.2939453 30.0170898,15.1513672 C28.8061523,14.0087891 27.1411133,13.4375 25.0219727,13.4375 C23.0883789,13.4375 21.4770508,13.9306641 20.1879883,14.9169922 C18.8989258,15.9033203 18.1323242,17.5292969 17.8881836,19.7949219 L17.8881836,19.7949219 L21.9897461,20.2050781 C22.0678711,19.0039062 22.3608398,18.1445312 22.8686523,17.6269531 C23.3764648,17.109375 24.0600586,16.8505859 24.9194336,16.8505859 C25.7885742,16.8505859 26.4697266,17.097168 26.9628906,17.590332 C27.4560547,18.0834961 27.7026367,18.7890625 27.7026367,19.7070312 C27.7026367,20.5371094 27.4194336,21.3769531 26.8530273,22.2265625 C26.4331055,22.8417969 25.2954102,24.0136719 23.4399414,25.7421875 C21.1352539,27.8808594 19.5922852,29.597168 18.8110352,30.8911133 C18.0297852,32.1850586 17.5610352,33.5546875 17.4047852,35 L17.4047852,35 L31.8334961,35 Z" id="2" fill="#FFFFFF" fill-rule="nonzero"></path>
            </g>
        </g>
    </g>
</svg>