<?xml version="1.0" encoding="UTF-8"?>
<svg width="50px" height="50px" viewBox="0 0 50 50" version="1.1" xmlns="http://www.w3.org/2000/svg" xmlns:xlink="http://www.w3.org/1999/xlink">
    <title>05</title>
    <g id="Page-1" stroke="none" stroke-width="1" fill="none" fill-rule="evenodd">
        <g id="permission" transform="translate(-317.000000, -37.000000)">
            <g id="05" transform="translate(317.000000, 37.000000)">
                <rect id="Rectangle-Copy-4" stroke="#369285" stroke-width="5" fill="#69DAC6" x="2.5" y="2.5" width="45" height="45" rx="10"></rect>
                <path d="M25.0805664,35.3662109 C27.5610352,35.3662109 29.4995117,34.4189453 30.8959961,32.5244141 C31.9213867,31.1376953 32.434082,29.5605469 32.434082,27.7929688 C32.434082,25.6738281 31.7993164,23.9501953 30.5297852,22.6220703 C29.2602539,21.2939453 27.7124023,20.6298828 25.8862305,20.6298828 C24.9291992,20.6298828 23.9916992,20.859375 23.0737305,21.3183594 L23.0737305,21.3183594 L23.7182617,17.6708984 L31.4819336,17.6708984 L31.4819336,13.8183594 L20.5981445,13.8183594 L18.4887695,24.9951172 L21.8286133,25.4785156 C22.7661133,24.4335938 23.8256836,23.9111328 25.0073242,23.9111328 C25.9545898,23.9111328 26.7236328,24.2407227 27.3144531,24.8999023 C27.9052734,25.559082 28.2006836,26.5478516 28.2006836,27.8662109 C28.2006836,29.2724609 27.902832,30.324707 27.3071289,31.0229492 C26.7114258,31.7211914 25.9838867,32.0703125 25.1245117,32.0703125 C24.3725586,32.0703125 23.7084961,31.7993164 23.1323242,31.2573242 C22.5561523,30.715332 22.2094727,29.9804688 22.0922852,29.0527344 L22.0922852,29.0527344 L17.9907227,29.4775391 C18.2348633,31.2744141 18.9819336,32.7050781 20.2319336,33.7695312 C21.4819336,34.8339844 23.0981445,35.3662109 25.0805664,35.3662109 Z" id="5" fill="#FFFFFF" fill-rule="nonzero"></path>
            </g>
        </g>
    </g>
</svg>