<?xml version="1.0" encoding="UTF-8"?>
<svg width="50px" height="50px" viewBox="0 0 50 50" version="1.1" xmlns="http://www.w3.org/2000/svg" xmlns:xlink="http://www.w3.org/1999/xlink">
    <title>08</title>
    <g id="Page-1" stroke="none" stroke-width="1" fill="none" fill-rule="evenodd">
        <g id="permission" transform="translate(-497.000000, -37.000000)">
            <g id="08" transform="translate(497.000000, 37.000000)">
                <rect id="Rectangle-Copy-7" stroke="#A54793" stroke-width="5" fill="#FD77D6" x="2.5" y="2.5" width="45" height="45" rx="10"></rect>
                <path d="M25.0512695,35.3808594 C27.1508789,35.3808594 28.8330078,34.7607422 30.0976562,33.5205078 C31.3623047,32.2802734 31.9946289,30.6689453 31.9946289,28.6865234 C31.9946289,27.4853516 31.6845703,26.4257812 31.0644531,25.5078125 C30.4443359,24.5898438 29.5385742,23.8916016 28.347168,23.4130859 C29.284668,23.0029297 30.012207,22.409668 30.5297852,21.6333008 C31.0473633,20.8569336 31.3061523,19.9707031 31.3061523,18.9746094 C31.3061523,17.3730469 30.7421875,16.0498047 29.6142578,15.0048828 C28.4863281,13.9599609 26.9018555,13.4375 24.8608398,13.4375 C22.800293,13.4375 21.2109375,13.9599609 20.0927734,15.0048828 C18.9746094,16.0498047 18.4155273,17.3730469 18.4155273,18.9746094 C18.4155273,19.9121094 18.6572266,20.7739258 19.140625,21.5600586 C19.6240234,22.3461914 20.3979492,22.9638672 21.4624023,23.4130859 C20.222168,23.9404297 19.3139648,24.6899414 18.737793,25.6616211 C18.1616211,26.6333008 17.8735352,27.7001953 17.8735352,28.8623047 C17.8735352,30.9716797 18.6401367,32.6318359 20.1733398,33.8427734 C21.472168,34.8681641 23.0981445,35.3808594 25.0512695,35.3808594 Z M24.8608398,21.875 C24.0893555,21.875 23.4716797,21.6455078 23.0078125,21.1865234 C22.5439453,20.7275391 22.3120117,20.0878906 22.3120117,19.2675781 C22.3120117,18.4960938 22.5463867,17.8759766 23.0151367,17.4072266 C23.4838867,16.9384766 24.1137695,16.7041016 24.9047852,16.7041016 C25.6665039,16.7041016 26.2792969,16.9360352 26.7431641,17.3999023 C27.2070312,17.8637695 27.4389648,18.4814453 27.4389648,19.2529297 C27.4389648,20.0732422 27.2045898,20.715332 26.7358398,21.1791992 C26.2670898,21.6430664 25.6420898,21.875 24.8608398,21.875 Z M24.9780273,32.0703125 C24.1088867,32.0703125 23.3837891,31.7529297 22.8027344,31.1181641 C22.2216797,30.4833984 21.9311523,29.5996094 21.9311523,28.4667969 C21.9311523,27.65625 22.1777344,26.9042969 22.6708984,26.2109375 C23.1640625,25.5175781 23.9135742,25.1708984 24.9194336,25.1708984 C25.7885742,25.1708984 26.5063477,25.4760742 27.0727539,26.0864258 C27.6391602,26.6967773 27.9223633,27.5048828 27.9223633,28.5107422 C27.9223633,29.6630859 27.644043,30.5444336 27.0874023,31.1547852 C26.5307617,31.7651367 25.8276367,32.0703125 24.9780273,32.0703125 Z" id="8" fill="#FFFFFF" fill-rule="nonzero"></path>
            </g>
        </g>
    </g>
</svg>